<mxfile host="app.diagrams.net" modified="2021-07-26T01:16:32.459Z" agent="5.0 (Windows NT 10.0; WOW64) AppleWebKit/537.36 (KHTML, like Gecko) Chrome/83.0.4103.61 Safari/537.36" etag="sSCm55Yt_0VbHRE_wzLf" version="14.9.2" type="github">
  <diagram id="om7GCIjXOvIVFAaJFHCs" name="第 1 页">
    <mxGraphModel dx="-391" dy="-1337" grid="1" gridSize="10" guides="1" tooltips="1" connect="1" arrows="1" fold="1" page="0" pageScale="1" pageWidth="827" pageHeight="1169" math="0" shadow="0">
      <root>
        <mxCell id="0" />
        <mxCell id="1" parent="0" />
        <mxCell id="ky-gaZQDomyGNnwXiSMZ-24" value="7" style="ellipse;whiteSpace=wrap;html=1;aspect=fixed;fillColor=#f8cecc;strokeColor=#b85450;gradientColor=#ea6b66;" vertex="1" parent="1">
          <mxGeometry x="1720" y="2560" width="40" height="40" as="geometry" />
        </mxCell>
        <mxCell id="ky-gaZQDomyGNnwXiSMZ-25" value="3" style="ellipse;whiteSpace=wrap;html=1;aspect=fixed;fillColor=#f5f5f5;strokeColor=#666666;gradientColor=#b3b3b3;" vertex="1" parent="1">
          <mxGeometry x="1680" y="2480" width="40" height="40" as="geometry" />
        </mxCell>
        <mxCell id="ky-gaZQDomyGNnwXiSMZ-26" value="8" style="ellipse;whiteSpace=wrap;html=1;aspect=fixed;fillColor=#f5f5f5;strokeColor=#666666;gradientColor=#b3b3b3;" vertex="1" parent="1">
          <mxGeometry x="1760" y="2480" width="40" height="40" as="geometry" />
        </mxCell>
        <mxCell id="ky-gaZQDomyGNnwXiSMZ-27" style="edgeStyle=none;rounded=1;sketch=0;orthogonalLoop=1;jettySize=auto;html=1;exitX=0.5;exitY=1;exitDx=0;exitDy=0;entryX=0.5;entryY=0;entryDx=0;entryDy=0;fontColor=#143642;strokeColor=#A8201A;fillColor=#FAE5C7;" edge="1" parent="1" target="ky-gaZQDomyGNnwXiSMZ-25">
          <mxGeometry x="1640" y="2320" as="geometry">
            <mxPoint x="1740" y="2440" as="sourcePoint" />
          </mxGeometry>
        </mxCell>
        <mxCell id="ky-gaZQDomyGNnwXiSMZ-28" style="edgeStyle=none;rounded=1;sketch=0;orthogonalLoop=1;jettySize=auto;html=1;exitX=0.5;exitY=1;exitDx=0;exitDy=0;entryX=0.5;entryY=0;entryDx=0;entryDy=0;fontColor=#143642;strokeColor=#A8201A;fillColor=#FAE5C7;" edge="1" parent="1" target="ky-gaZQDomyGNnwXiSMZ-26">
          <mxGeometry x="1640" y="2320" as="geometry">
            <mxPoint x="1740" y="2440" as="sourcePoint" />
          </mxGeometry>
        </mxCell>
        <mxCell id="ky-gaZQDomyGNnwXiSMZ-29" style="rounded=1;sketch=0;orthogonalLoop=1;jettySize=auto;html=1;exitX=0.5;exitY=1;exitDx=0;exitDy=0;entryX=0.5;entryY=0;entryDx=0;entryDy=0;fontColor=#143642;strokeColor=#A8201A;fillColor=#FAE5C7;" edge="1" parent="1" source="ky-gaZQDomyGNnwXiSMZ-34" target="ky-gaZQDomyGNnwXiSMZ-44">
          <mxGeometry x="1720" y="2320" as="geometry">
            <mxPoint x="1900" y="2360" as="sourcePoint" />
            <mxPoint x="1700" y="2400" as="targetPoint" />
          </mxGeometry>
        </mxCell>
        <mxCell id="ky-gaZQDomyGNnwXiSMZ-30" value="16" style="ellipse;whiteSpace=wrap;html=1;aspect=fixed;fillColor=#f5f5f5;strokeColor=#666666;gradientColor=#b3b3b3;" vertex="1" parent="1">
          <mxGeometry x="1920" y="2480" width="40" height="40" as="geometry" />
        </mxCell>
        <mxCell id="ky-gaZQDomyGNnwXiSMZ-31" value="3" style="ellipse;whiteSpace=wrap;html=1;aspect=fixed;fillColor=#f5f5f5;strokeColor=#666666;gradientColor=#b3b3b3;" vertex="1" parent="1">
          <mxGeometry x="1680" y="2480" width="40" height="40" as="geometry" />
        </mxCell>
        <mxCell id="ky-gaZQDomyGNnwXiSMZ-32" value="8" style="ellipse;whiteSpace=wrap;html=1;aspect=fixed;fillColor=#f5f5f5;strokeColor=#666666;gradientColor=#b3b3b3;" vertex="1" parent="1">
          <mxGeometry x="1760" y="2480" width="40" height="40" as="geometry" />
        </mxCell>
        <mxCell id="ky-gaZQDomyGNnwXiSMZ-33" style="edgeStyle=none;rounded=0;orthogonalLoop=1;jettySize=auto;html=1;exitX=0.5;exitY=1;exitDx=0;exitDy=0;entryX=0.5;entryY=0;entryDx=0;entryDy=0;gradientColor=#ea6b66;fillColor=#f8cecc;strokeColor=#b85450;" edge="1" parent="1" source="ky-gaZQDomyGNnwXiSMZ-34" target="ky-gaZQDomyGNnwXiSMZ-43">
          <mxGeometry relative="1" as="geometry" />
        </mxCell>
        <mxCell id="ky-gaZQDomyGNnwXiSMZ-34" value="12" style="ellipse;whiteSpace=wrap;html=1;aspect=fixed;fillColor=#f5f5f5;strokeColor=#666666;gradientColor=#b3b3b3;" vertex="1" parent="1">
          <mxGeometry x="1800" y="2320" width="40" height="40" as="geometry" />
        </mxCell>
        <mxCell id="ky-gaZQDomyGNnwXiSMZ-35" value="3" style="ellipse;whiteSpace=wrap;html=1;aspect=fixed;fillColor=#f5f5f5;strokeColor=#666666;gradientColor=#b3b3b3;" vertex="1" parent="1">
          <mxGeometry x="1680" y="2480" width="40" height="40" as="geometry" />
        </mxCell>
        <mxCell id="ky-gaZQDomyGNnwXiSMZ-36" style="edgeStyle=none;rounded=0;orthogonalLoop=1;jettySize=auto;html=1;exitX=0.5;exitY=1;exitDx=0;exitDy=0;entryX=0.5;entryY=0;entryDx=0;entryDy=0;strokeColor=#A8201A;" edge="1" parent="1" source="ky-gaZQDomyGNnwXiSMZ-38" target="ky-gaZQDomyGNnwXiSMZ-24">
          <mxGeometry relative="1" as="geometry" />
        </mxCell>
        <mxCell id="ky-gaZQDomyGNnwXiSMZ-37" style="edgeStyle=none;rounded=0;orthogonalLoop=1;jettySize=auto;html=1;exitX=0.5;exitY=1;exitDx=0;exitDy=0;entryX=0.5;entryY=0;entryDx=0;entryDy=0;strokeColor=#A8201A;" edge="1" parent="1" source="ky-gaZQDomyGNnwXiSMZ-38" target="ky-gaZQDomyGNnwXiSMZ-39">
          <mxGeometry relative="1" as="geometry" />
        </mxCell>
        <mxCell id="ky-gaZQDomyGNnwXiSMZ-38" value="8" style="ellipse;whiteSpace=wrap;html=1;aspect=fixed;fillColor=#f5f5f5;strokeColor=#666666;gradientColor=#b3b3b3;" vertex="1" parent="1">
          <mxGeometry x="1760" y="2480" width="40" height="40" as="geometry" />
        </mxCell>
        <mxCell id="ky-gaZQDomyGNnwXiSMZ-39" value="9" style="ellipse;whiteSpace=wrap;html=1;aspect=fixed;fillColor=#f8cecc;strokeColor=#b85450;gradientColor=#ea6b66;" vertex="1" parent="1">
          <mxGeometry x="1800" y="2560" width="40" height="40" as="geometry" />
        </mxCell>
        <mxCell id="ky-gaZQDomyGNnwXiSMZ-40" value="14" style="ellipse;whiteSpace=wrap;html=1;aspect=fixed;fillColor=#f5f5f5;strokeColor=#666666;gradientColor=#b3b3b3;" vertex="1" parent="1">
          <mxGeometry x="1840" y="2480" width="40" height="40" as="geometry" />
        </mxCell>
        <mxCell id="ky-gaZQDomyGNnwXiSMZ-41" style="edgeStyle=none;rounded=0;orthogonalLoop=1;jettySize=auto;html=1;exitX=0.5;exitY=1;exitDx=0;exitDy=0;entryX=0.5;entryY=0;entryDx=0;entryDy=0;gradientColor=#ea6b66;fillColor=#f8cecc;strokeColor=#b85450;" edge="1" parent="1" source="ky-gaZQDomyGNnwXiSMZ-43" target="ky-gaZQDomyGNnwXiSMZ-30">
          <mxGeometry relative="1" as="geometry" />
        </mxCell>
        <mxCell id="ky-gaZQDomyGNnwXiSMZ-42" style="rounded=0;orthogonalLoop=1;jettySize=auto;html=1;exitX=0.5;exitY=1;exitDx=0;exitDy=0;fontSize=13;entryX=0.5;entryY=0;entryDx=0;entryDy=0;gradientColor=#ea6b66;fillColor=#f8cecc;strokeColor=#b85450;" edge="1" parent="1" source="ky-gaZQDomyGNnwXiSMZ-43" target="ky-gaZQDomyGNnwXiSMZ-40">
          <mxGeometry relative="1" as="geometry" />
        </mxCell>
        <mxCell id="ky-gaZQDomyGNnwXiSMZ-43" value="15" style="ellipse;whiteSpace=wrap;html=1;aspect=fixed;fillColor=#f8cecc;strokeColor=#b85450;gradientColor=#ea6b66;" vertex="1" parent="1">
          <mxGeometry x="1880" y="2400" width="40" height="40" as="geometry" />
        </mxCell>
        <mxCell id="ky-gaZQDomyGNnwXiSMZ-44" value="5" style="ellipse;whiteSpace=wrap;html=1;aspect=fixed;fillColor=#f8cecc;strokeColor=#b85450;gradientColor=#ea6b66;" vertex="1" parent="1">
          <mxGeometry x="1720" y="2400" width="40" height="40" as="geometry" />
        </mxCell>
        <mxCell id="ky-gaZQDomyGNnwXiSMZ-45" value="3" style="ellipse;whiteSpace=wrap;html=1;aspect=fixed;fillColor=#f5f5f5;strokeColor=#666666;gradientColor=#b3b3b3;" vertex="1" parent="1">
          <mxGeometry x="1680" y="2480" width="40" height="40" as="geometry" />
        </mxCell>
        <mxCell id="ky-gaZQDomyGNnwXiSMZ-46" value="8" style="ellipse;whiteSpace=wrap;html=1;aspect=fixed;fillColor=#f5f5f5;strokeColor=#666666;gradientColor=#b3b3b3;" vertex="1" parent="1">
          <mxGeometry x="1760" y="2480" width="40" height="40" as="geometry" />
        </mxCell>
        <mxCell id="ky-gaZQDomyGNnwXiSMZ-48" value="&lt;font color=&quot;#143642&quot;&gt;&lt;b&gt;删除元素14，记为DE&lt;/b&gt;&lt;/font&gt;" style="shape=callout;whiteSpace=wrap;html=1;perimeter=calloutPerimeter;rounded=1;position2=1;" vertex="1" parent="1">
          <mxGeometry x="1640" y="2280" width="120" height="80" as="geometry" />
        </mxCell>
        <mxCell id="ky-gaZQDomyGNnwXiSMZ-73" value="7" style="ellipse;whiteSpace=wrap;html=1;aspect=fixed;fillColor=#f8cecc;strokeColor=#b85450;gradientColor=#ea6b66;" vertex="1" parent="1">
          <mxGeometry x="2120" y="2560" width="40" height="40" as="geometry" />
        </mxCell>
        <mxCell id="ky-gaZQDomyGNnwXiSMZ-74" value="3" style="ellipse;whiteSpace=wrap;html=1;aspect=fixed;fillColor=#f5f5f5;strokeColor=#666666;gradientColor=#b3b3b3;" vertex="1" parent="1">
          <mxGeometry x="2080" y="2480" width="40" height="40" as="geometry" />
        </mxCell>
        <mxCell id="ky-gaZQDomyGNnwXiSMZ-75" value="8" style="ellipse;whiteSpace=wrap;html=1;aspect=fixed;fillColor=#f5f5f5;strokeColor=#666666;gradientColor=#b3b3b3;" vertex="1" parent="1">
          <mxGeometry x="2160" y="2480" width="40" height="40" as="geometry" />
        </mxCell>
        <mxCell id="ky-gaZQDomyGNnwXiSMZ-76" style="edgeStyle=none;rounded=1;sketch=0;orthogonalLoop=1;jettySize=auto;html=1;exitX=0.5;exitY=1;exitDx=0;exitDy=0;entryX=0.5;entryY=0;entryDx=0;entryDy=0;fontColor=#143642;strokeColor=#A8201A;fillColor=#FAE5C7;" edge="1" parent="1" target="ky-gaZQDomyGNnwXiSMZ-74">
          <mxGeometry x="2040" y="2320" as="geometry">
            <mxPoint x="2140" y="2440" as="sourcePoint" />
          </mxGeometry>
        </mxCell>
        <mxCell id="ky-gaZQDomyGNnwXiSMZ-77" style="edgeStyle=none;rounded=1;sketch=0;orthogonalLoop=1;jettySize=auto;html=1;exitX=0.5;exitY=1;exitDx=0;exitDy=0;entryX=0.5;entryY=0;entryDx=0;entryDy=0;fontColor=#143642;strokeColor=#A8201A;fillColor=#FAE5C7;" edge="1" parent="1" target="ky-gaZQDomyGNnwXiSMZ-75">
          <mxGeometry x="2040" y="2320" as="geometry">
            <mxPoint x="2140" y="2440" as="sourcePoint" />
          </mxGeometry>
        </mxCell>
        <mxCell id="ky-gaZQDomyGNnwXiSMZ-78" style="rounded=1;sketch=0;orthogonalLoop=1;jettySize=auto;html=1;exitX=0.5;exitY=1;exitDx=0;exitDy=0;entryX=0.5;entryY=0;entryDx=0;entryDy=0;fontColor=#143642;strokeColor=#A8201A;fillColor=#FAE5C7;" edge="1" parent="1" source="ky-gaZQDomyGNnwXiSMZ-83" target="ky-gaZQDomyGNnwXiSMZ-93">
          <mxGeometry x="2120" y="2320" as="geometry">
            <mxPoint x="2300" y="2360" as="sourcePoint" />
            <mxPoint x="2100" y="2400" as="targetPoint" />
          </mxGeometry>
        </mxCell>
        <mxCell id="ky-gaZQDomyGNnwXiSMZ-79" value="16" style="ellipse;whiteSpace=wrap;html=1;aspect=fixed;fillColor=#f5f5f5;strokeColor=#666666;gradientColor=#b3b3b3;" vertex="1" parent="1">
          <mxGeometry x="2320" y="2480" width="40" height="40" as="geometry" />
        </mxCell>
        <mxCell id="ky-gaZQDomyGNnwXiSMZ-80" value="3" style="ellipse;whiteSpace=wrap;html=1;aspect=fixed;fillColor=#f5f5f5;strokeColor=#666666;gradientColor=#b3b3b3;" vertex="1" parent="1">
          <mxGeometry x="2080" y="2480" width="40" height="40" as="geometry" />
        </mxCell>
        <mxCell id="ky-gaZQDomyGNnwXiSMZ-81" value="8" style="ellipse;whiteSpace=wrap;html=1;aspect=fixed;fillColor=#f5f5f5;strokeColor=#666666;gradientColor=#b3b3b3;" vertex="1" parent="1">
          <mxGeometry x="2160" y="2480" width="40" height="40" as="geometry" />
        </mxCell>
        <mxCell id="ky-gaZQDomyGNnwXiSMZ-82" style="edgeStyle=none;rounded=0;orthogonalLoop=1;jettySize=auto;html=1;exitX=0.5;exitY=1;exitDx=0;exitDy=0;entryX=0.5;entryY=0;entryDx=0;entryDy=0;gradientColor=#ea6b66;fillColor=#f8cecc;strokeColor=#b85450;" edge="1" parent="1" source="ky-gaZQDomyGNnwXiSMZ-83" target="ky-gaZQDomyGNnwXiSMZ-92">
          <mxGeometry relative="1" as="geometry" />
        </mxCell>
        <mxCell id="ky-gaZQDomyGNnwXiSMZ-83" value="12" style="ellipse;whiteSpace=wrap;html=1;aspect=fixed;fillColor=#f5f5f5;strokeColor=#666666;gradientColor=#b3b3b3;" vertex="1" parent="1">
          <mxGeometry x="2200" y="2320" width="40" height="40" as="geometry" />
        </mxCell>
        <mxCell id="ky-gaZQDomyGNnwXiSMZ-84" value="3" style="ellipse;whiteSpace=wrap;html=1;aspect=fixed;fillColor=#f5f5f5;strokeColor=#666666;gradientColor=#b3b3b3;" vertex="1" parent="1">
          <mxGeometry x="2080" y="2480" width="40" height="40" as="geometry" />
        </mxCell>
        <mxCell id="ky-gaZQDomyGNnwXiSMZ-85" style="edgeStyle=none;rounded=0;orthogonalLoop=1;jettySize=auto;html=1;exitX=0.5;exitY=1;exitDx=0;exitDy=0;entryX=0.5;entryY=0;entryDx=0;entryDy=0;strokeColor=#A8201A;" edge="1" parent="1" source="ky-gaZQDomyGNnwXiSMZ-87" target="ky-gaZQDomyGNnwXiSMZ-73">
          <mxGeometry relative="1" as="geometry" />
        </mxCell>
        <mxCell id="ky-gaZQDomyGNnwXiSMZ-86" style="edgeStyle=none;rounded=0;orthogonalLoop=1;jettySize=auto;html=1;exitX=0.5;exitY=1;exitDx=0;exitDy=0;entryX=0.5;entryY=0;entryDx=0;entryDy=0;strokeColor=#A8201A;" edge="1" parent="1" source="ky-gaZQDomyGNnwXiSMZ-87" target="ky-gaZQDomyGNnwXiSMZ-88">
          <mxGeometry relative="1" as="geometry" />
        </mxCell>
        <mxCell id="ky-gaZQDomyGNnwXiSMZ-87" value="8" style="ellipse;whiteSpace=wrap;html=1;aspect=fixed;fillColor=#f5f5f5;strokeColor=#666666;gradientColor=#b3b3b3;" vertex="1" parent="1">
          <mxGeometry x="2160" y="2480" width="40" height="40" as="geometry" />
        </mxCell>
        <mxCell id="ky-gaZQDomyGNnwXiSMZ-88" value="9" style="ellipse;whiteSpace=wrap;html=1;aspect=fixed;fillColor=#f8cecc;strokeColor=#b85450;gradientColor=#ea6b66;" vertex="1" parent="1">
          <mxGeometry x="2200" y="2560" width="40" height="40" as="geometry" />
        </mxCell>
        <mxCell id="ky-gaZQDomyGNnwXiSMZ-89" value="14" style="ellipse;whiteSpace=wrap;html=1;aspect=fixed;fillColor=#f5f5f5;strokeColor=#666666;gradientColor=#b3b3b3;" vertex="1" parent="1">
          <mxGeometry x="2240" y="2480" width="40" height="40" as="geometry" />
        </mxCell>
        <mxCell id="ky-gaZQDomyGNnwXiSMZ-90" style="edgeStyle=none;rounded=0;orthogonalLoop=1;jettySize=auto;html=1;exitX=0.5;exitY=1;exitDx=0;exitDy=0;entryX=0.5;entryY=0;entryDx=0;entryDy=0;gradientColor=#ea6b66;fillColor=#f8cecc;strokeColor=#b85450;" edge="1" parent="1" source="ky-gaZQDomyGNnwXiSMZ-92" target="ky-gaZQDomyGNnwXiSMZ-79">
          <mxGeometry relative="1" as="geometry" />
        </mxCell>
        <mxCell id="ky-gaZQDomyGNnwXiSMZ-91" style="rounded=0;orthogonalLoop=1;jettySize=auto;html=1;exitX=0.5;exitY=1;exitDx=0;exitDy=0;fontSize=13;entryX=0.5;entryY=0;entryDx=0;entryDy=0;gradientColor=#ea6b66;fillColor=#f8cecc;strokeColor=#b85450;" edge="1" parent="1" source="ky-gaZQDomyGNnwXiSMZ-92" target="ky-gaZQDomyGNnwXiSMZ-89">
          <mxGeometry relative="1" as="geometry" />
        </mxCell>
        <mxCell id="ky-gaZQDomyGNnwXiSMZ-92" value="15" style="ellipse;whiteSpace=wrap;html=1;aspect=fixed;fillColor=#f8cecc;strokeColor=#b85450;gradientColor=#ea6b66;" vertex="1" parent="1">
          <mxGeometry x="2280" y="2400" width="40" height="40" as="geometry" />
        </mxCell>
        <mxCell id="ky-gaZQDomyGNnwXiSMZ-93" value="5" style="ellipse;whiteSpace=wrap;html=1;aspect=fixed;fillColor=#f8cecc;strokeColor=#b85450;gradientColor=#ea6b66;" vertex="1" parent="1">
          <mxGeometry x="2120" y="2400" width="40" height="40" as="geometry" />
        </mxCell>
        <mxCell id="ky-gaZQDomyGNnwXiSMZ-94" value="3" style="ellipse;whiteSpace=wrap;html=1;aspect=fixed;fillColor=#f5f5f5;strokeColor=#666666;gradientColor=#b3b3b3;" vertex="1" parent="1">
          <mxGeometry x="2080" y="2480" width="40" height="40" as="geometry" />
        </mxCell>
        <mxCell id="ky-gaZQDomyGNnwXiSMZ-95" value="8" style="ellipse;whiteSpace=wrap;html=1;aspect=fixed;fillColor=#f5f5f5;strokeColor=#666666;gradientColor=#b3b3b3;" vertex="1" parent="1">
          <mxGeometry x="2160" y="2480" width="40" height="40" as="geometry" />
        </mxCell>
        <mxCell id="ky-gaZQDomyGNnwXiSMZ-96" value="&lt;font color=&quot;#143642&quot;&gt;&lt;b&gt;删除元素14，记为DE&lt;/b&gt;&lt;/font&gt;" style="shape=callout;whiteSpace=wrap;html=1;perimeter=calloutPerimeter;rounded=1;position2=1;" vertex="1" parent="1">
          <mxGeometry x="2040" y="2280" width="120" height="80" as="geometry" />
        </mxCell>
        <mxCell id="ky-gaZQDomyGNnwXiSMZ-97" value="" style="html=1;shadow=0;dashed=0;align=center;verticalAlign=middle;shape=mxgraph.arrows2.arrow;dy=0.6;dx=40;notch=0;rounded=1;glass=0;sketch=0;fontColor=#143642;strokeColor=#0F8B8D;fillColor=#FAE5C7;" vertex="1" parent="1">
          <mxGeometry x="1990" y="2440" width="70" height="20" as="geometry" />
        </mxCell>
      </root>
    </mxGraphModel>
  </diagram>
</mxfile>
